# xmcd
#
# Track frame offsets: 
#        150
#        13990
#        26807
#        43947
#        57607
#        68030
#        82492
#        96605
#        109405
#        123355
#        134897
#        149462
#        163037
#        190982
#        203965
#        220230
#        233565
#        256950
#        268407
#        281525
#
# Disc length: 3955 seconds
#
# Revision: 3
# Processed by: cddbd v1.5.2PL0 Copyright (c) Steve Scherf et al.
# Submitted via: ExactAudioCopy v0.95b4
#
DISCID=530f7114
DTITLE=BB King - The Collection
DYEAR=1995
DGENRE=Blues
TTITLE0=You Upset Me Baby
TTITLE1=Everyday I Have The Blues
TTITLE2=Three O'Clock Blues
TTITLE3=Woke Up This Morning
TTITLE4=Bad Luck Soul
TTITLE5=The Jungle
TTITLE6=The Letter
TTITLE7=Rock Me Baby
TTITLE8=You Know I Love You
TTITLE9=Please Accept My Love
TTITLE10=Sweet Little Angel
TTITLE11=Crying Won't Help You
TTITLE12=Sweet Sixteen
TTITLE13=The Woman I Love
TTITLE14=Troubles, Troubles, Troubles
TTITLE15=When My Heart Beats Like A Hammer
TTITLE16=You Done Lost Your Good Thing Now
TTITLE17=Key To My Knigdom
TTITLE18=Why Do Everything Happen To Me
TTITLE19=Dust My Broom
EXTD=
EXTT0=
EXTT1=
EXTT2=
EXTT3=
EXTT4=
EXTT5=
EXTT6=
EXTT7=
EXTT8=
EXTT9=
EXTT10=
EXTT11=
EXTT12=
EXTT13=
EXTT14=
EXTT15=
EXTT16=
EXTT17=
EXTT18=
EXTT19=
PLAYORDER=
